<svg width="26" height="24" viewBox="0 0 26 24" fill="none" xmlns="http://www.w3.org/2000/svg">
<path d="M24.25 4.14036H19.6041L18.7581 1.61266C18.6444 1.27324 18.4317 0.978968 18.1496 0.770671C17.8674 0.562374 17.5299 0.450371 17.1837 0.450195H8.79392C8.44588 0.450122 8.10655 0.563192 7.82356 0.773532C7.54058 0.983873 7.32815 1.28093 7.21609 1.62299L6.39071 4.14036H1.75002C1.41861 4.14074 1.10088 4.27758 0.866533 4.52085C0.63219 4.76412 0.500372 5.09396 0.5 5.438V22.3073C0.500372 22.6513 0.63219 22.9812 0.866533 23.2245C1.10088 23.4677 1.41861 23.6046 1.75002 23.6049H24.25C24.5814 23.6046 24.8991 23.4677 25.1335 23.2245C25.3678 22.9812 25.4996 22.6513 25.5 22.3073V5.438C25.4996 5.09396 25.3678 4.76412 25.1335 4.52085C24.8991 4.27758 24.5814 4.14074 24.25 4.14036ZM23.8333 21.8748H2.16706V5.87054H7.58432L8.79392 2.18038H17.1837L18.4186 5.87054H23.8333V21.8748Z" fill="black"/>
<path d="M13.0001 7.16821C11.8257 7.16821 10.6778 7.52971 9.70134 8.207C8.72491 8.88428 7.96388 9.84694 7.51447 10.9732C7.06507 12.0995 6.94749 13.3388 7.17659 14.5345C7.40569 15.7302 7.9712 16.8284 8.80158 17.6905C9.63197 18.5525 10.6899 19.1395 11.8417 19.3774C12.9935 19.6152 14.1874 19.4931 15.2723 19.0266C16.3573 18.5601 17.2846 17.7701 17.937 16.7564C18.5894 15.7428 18.9377 14.5511 18.9377 13.332C18.9359 11.6978 18.3097 10.1311 17.1966 8.9756C16.0835 7.82007 14.5743 7.17007 13.0001 7.16821ZM13.0001 17.7656C12.1554 17.7656 11.3297 17.5056 10.6273 17.0184C9.92496 16.5312 9.37755 15.8388 9.0543 15.0287C8.73104 14.2185 8.64646 13.3271 8.81126 12.4671C8.97605 11.607 9.38281 10.817 9.98011 10.197C10.5774 9.57692 11.3384 9.15466 12.1669 8.98359C12.9954 8.81252 13.8541 8.90032 14.6345 9.23589C15.4149 9.57146 16.0819 10.1397 16.5512 10.8688C17.0205 11.5979 17.271 12.4551 17.271 13.332C17.2697 14.5075 16.8193 15.6344 16.0187 16.4656C15.218 17.2967 14.1324 17.7643 13.0001 17.7656Z" fill="black"/>
</svg>
