<?xml version="1.0" standalone="no"?>
<!DOCTYPE svg PUBLIC "-//W3C//DTD SVG 20010904//EN"
 "http://www.w3.org/TR/2001/REC-SVG-20010904/DTD/svg10.dtd">
<svg version="1.0" xmlns="http://www.w3.org/2000/svg"
 width="512.000000pt" height="512.000000pt" viewBox="0 0 512.000000 512.000000"
 preserveAspectRatio="xMidYMid meet">

<g transform="translate(0.000000,512.000000) scale(0.100000,-0.100000)"
fill="#000000" stroke="none">
<path d="M2478 4197 c-59 -17 -119 -56 -151 -99 -31 -41 -1500 -2584 -1533
-2653 -18 -38 -24 -67 -24 -120 0 -123 67 -227 179 -279 l46 -21 1565 0 1565
0 46 21 c70 33 123 86 154 155 24 55 27 71 23 139 -4 61 -11 88 -36 134 -116
215 -1503 2605 -1530 2636 -65 77 -201 116 -304 87z m182 -952 c39 -20 77 -69
90 -113 14 -52 13 -864 -1 -917 -21 -74 -106 -135 -189 -135 -83 0 -168 61
-189 135 -14 53 -15 865 -1 917 12 41 50 92 84 110 55 30 151 31 206 3z m-32
-1441 c78 -32 125 -99 125 -179 1 -82 -42 -149 -116 -180 -66 -28 -159 -13
-210 33 -56 50 -78 163 -44 227 48 93 156 137 245 99z"/>
</g>
</svg>
