<svg width="23" height="18" viewBox="0 0 23 18" fill="none" xmlns="http://www.w3.org/2000/svg">
<path id="Vector" d="M11.5863 0C4.3125 0 0 9 0 9C0 9 4.3125 18 11.5863 18C18.6875 18 23 9 23 9C23 9 18.6875 0 11.5863 0ZM11.5 3C14.6912 3 17.25 5.7 17.25 9C17.25 12.33 14.6912 15 11.5 15C8.3375 15 5.75 12.33 5.75 9C5.75 5.7 8.3375 3 11.5 3ZM11.5 6C9.91875 6 8.625 7.35 8.625 9C8.625 10.65 9.91875 12 11.5 12C13.0813 12 14.375 10.65 14.375 9C14.375 8.7 14.26 8.43 14.2025 8.16C13.9725 8.64 13.5125 9 12.9375 9C12.1325 9 11.5 8.34 11.5 7.5C11.5 6.9 11.845 6.42 12.305 6.18C12.0463 6.09 11.7875 6 11.5 6Z" fill="black"/>
</svg>
