<svg width="58" height="64" viewBox="0 0 58 64" fill="none" xmlns="http://www.w3.org/2000/svg">
<path d="M45.9167 7.96671H43.5V2.65552H38.6667V7.96671H19.3333V2.65552H14.5V7.96671H12.0833C9.40083 7.96671 7.25 10.3567 7.25 13.2779V50.4562C7.25 53.3774 9.40083 55.7674 12.0833 55.7674H45.9167C48.575 55.7674 50.75 53.3774 50.75 50.4562V13.2779C50.75 10.3567 48.575 7.96671 45.9167 7.96671ZM29 15.9335C33.0117 15.9335 36.25 19.492 36.25 23.9003C36.25 28.3086 33.0117 31.8671 29 31.8671C24.9883 31.8671 21.75 28.3086 21.75 23.9003C21.75 19.492 24.9883 15.9335 29 15.9335ZM43.5 47.8006H14.5V45.145C14.5 39.8338 24.1667 36.9127 29 36.9127C33.8333 36.9127 43.5 39.8338 43.5 45.145V47.8006Z" fill="black"/>
</svg>
